# xmcd
# Track frame offsets:
# 150
# 18022
# 32745
# 43489
# 56164
# 75035
# 88510
# 107977
# 129877
# 149337
# 172405
# 190450
# 203600
# 223455
#
# Disc length: 3185 seconds
# Revision: 0
# Processed by: cddbd v1.4PL0 Copyright (c) Steve Scherf et al.
# Submitted via: VisiTrax 2.8.1.130 - For more info visit www.synapsa.com
#
DISCID=ca0c6f0e
DTITLE=Hot Toddy - Shoe Factory
DYEAR=1900
DGENRE=
TTITLE0=Crow jane
TTITLE1=Cross cut saw
TTITLE2=Right from the start
TTITLE3=She's my gal
TTITLE4=I wish you would
TTITLE5=One more night
TTITLE6=12 slogs
TTITLE7=Rescue me
TTITLE8=Neighbor's land
TTITLE9=Mermaids flirt with me
TTITLE10=My babe
TTITLE11=Down by the riverside
TTITLE12=Long distance
TTITLE13=T-Bone shuffle
EXTD=
EXTT0=
EXTT1=
EXTT2=
EXTT3=
EXTT4=
EXTT5=
EXTT6=
EXTT7=
EXTT8=
EXTT9=
EXTT10=
EXTT11=
EXTT12=
EXTT13=
PLAYORDER=
